<svg xmlns="http://www.w3.org/2000/svg" version="1.1" xmlns:xlink="http://www.w3.org/1999/xlink" xmlns:svgjs="http://svgjs.dev/svgjs" width="1500" height="1230" viewBox="0 0 1500 1230"><g transform="matrix(1,0,0,1,1.2446183178183219,0.49797570850194006)"><svg viewBox="0 0 301 247" data-background-color="#fafafa" preserveAspectRatio="xMidYMid meet" height="1230" width="1500" xmlns="http://www.w3.org/2000/svg" xmlns:xlink="http://www.w3.org/1999/xlink"><g id="tight-bounds" transform="matrix(1,0,0,1,-0.24975340910887667,-0.09999999999999432)"><svg viewBox="0 0 301.49950681821775 247.2" height="247.2" width="301.49950681821775"><g><svg viewBox="0 0 395.52 324.2875752329164" height="247.2" width="301.49950681821775"><g transform="matrix(1,0,0,1,0,237.39887529621046)"><svg viewBox="0 0 395.52 86.88869993670593" height="86.88869993670593" width="395.52"><g id="textblocktransform"><svg viewBox="0 0 395.52 86.88869993670593" height="86.88869993670593" width="395.52" id="textblock"><g></g><g><svg viewBox="0 0 395.52 50.44473721093204" height="50.44473721093204" width="395.52"><g transform="matrix(1,0,0,1,0,0)"><svg width="395.52" viewBox="1.5 -35.7 285.38 36.400000000000006" height="50.44473721093204" data-palette-color="#130912"><path d="M17.55 0.7Q12.7 0.7 9.08-1.6 5.45-3.9 3.48-8.03 1.5-12.15 1.5-17.5L1.5-17.5Q1.5-22.95 3.58-27.08 5.65-31.2 9.33-33.45 13-35.7 17.6-35.7L17.6-35.7Q21.95-35.7 25.55-34.15L25.55-34.15 24.95-29.05Q23.25-29.85 21.68-30.25 20.1-30.65 18.2-30.65L18.2-30.65Q13.05-30.65 10.18-27.03 7.3-23.4 7.3-17.5L7.3-17.5Q7.3-11.45 10.03-7.9 12.75-4.35 17.95-4.35L17.95-4.35Q19.8-4.35 21.3-4.9L21.3-4.9 21.3-12.75 17.05-12.75 17.05-17.55 26.55-17.55 26.55-1.7Q24.85-0.6 22.5 0.05 20.15 0.7 17.55 0.7L17.55 0.7ZM31.95 0L31.95-35 41.45-35Q46.95-35 50.05-32.3 53.15-29.6 53.15-24.25L53.15-24.25Q53.15-21.15 51.77-18.7 50.4-16.25 47.95-14.9L47.95-14.9 54.8 0 48.75 0 42.75-13.4Q42.45-13.35 41.6-13.35L41.6-13.35 37.2-13.35 37.2 0 31.95 0ZM37.2-18L41-18Q44.4-18 46.05-19.53 47.7-21.05 47.7-24.15L47.7-24.15Q47.7-27.3 46.05-28.83 44.4-30.35 41-30.35L41-30.35 37.2-30.35 37.2-18ZM58.8 0L58.8-35 77.95-35 77.95-30.2 64.05-30.2 64.05-20.7 74.9-20.7 74.9-15.9 64.05-15.9 64.05-4.8 78.34-4.8 78.34 0 58.8 0ZM83.09 0L83.09-35 102.24-35 102.24-30.2 88.34-30.2 88.34-20.7 99.19-20.7 99.19-15.9 88.34-15.9 88.34-4.8 102.64-4.8 102.64 0 83.09 0ZM107.39 0L107.39-35 113.04-35 125.89-11.05 125.89-35 131.09-35 131.09 0 126.39 0 112.64-25.4 112.64 0 107.39 0ZM147.64 0L147.64-35 152.84-35 152.84 0 147.64 0ZM164.04 0L153.09-18.55 164.04-35 170.04-35 158.94-18.55 170.04 0 164.04 0ZM191.73 0L189.08-9 178.63-9 176.03 0 170.63 0 181.33-35 186.43-35 197.13 0 191.73 0ZM180.03-13.85L187.68-13.85 183.88-26.95 180.03-13.85ZM200.73 0L200.73-35 210.23-35Q215.73-35 218.83-32.3 221.93-29.6 221.93-24.25L221.93-24.25Q221.93-21.15 220.56-18.7 219.18-16.25 216.73-14.9L216.73-14.9 223.58 0 217.53 0 211.53-13.4Q211.23-13.35 210.38-13.35L210.38-13.35 205.98-13.35 205.98 0 200.73 0ZM205.98-18L209.78-18Q213.18-18 214.83-19.53 216.48-21.05 216.48-24.15L216.48-24.15Q216.48-27.3 214.83-28.83 213.18-30.35 209.78-30.35L209.78-30.35 205.98-30.35 205.98-18ZM258.23 0L252.73 0 250.28-24 242.33-7.15 234.38-24 231.88 0 226.38 0 230.43-35 234.78-35 242.33-18.15 249.83-35 254.18-35 258.23 0ZM281.48 0L278.82-9 268.38-9 265.78 0 260.38 0 271.07-35 276.18-35 286.88 0 281.48 0ZM269.78-13.85L277.43-13.85 273.63-26.95 269.78-13.85Z" opacity="1" transform="matrix(1,0,0,1,0,0)" fill="#130912" class="wordmark-text-0" data-fill-palette-color="primary" id="text-0"></path></svg></g></svg></g><g transform="matrix(1,0,0,1,0,62.35352899274003)"><svg viewBox="0 0 395.52 24.535170943965902" height="24.535170943965902" width="395.52"><g transform="matrix(1,0,0,1,8,0)"><svg width="379.52" viewBox="1.65 -35.7 563 36.400000000000006" height="24.535170943965902" data-palette-color="#130912"><path d="M11.6 0.7Q9.15 0.7 6.48 0.13 3.8-0.45 2.1-1.25L2.1-1.25 2.75-6.25Q4.75-5 7.2-4.23 9.65-3.45 12.05-3.45L12.05-3.45Q15.15-3.45 16.9-4.73 18.65-6 18.65-8.45L18.65-8.45Q18.65-10.2 17.82-11.45 17-12.7 15.45-13.68 13.9-14.65 11.1-15.9L11.1-15.9Q7.8-17.4 5.88-18.65 3.95-19.9 2.8-21.75 1.65-23.6 1.65-26.35L1.65-26.35Q1.65-29.15 3.1-31.28 4.55-33.4 7.18-34.55 9.8-35.7 13.15-35.7L13.15-35.7Q15.7-35.7 17.98-35.15 20.25-34.6 21.85-33.8L21.85-33.8 21.35-29.1Q17.2-31.55 12.9-31.55L12.9-31.55Q10-31.55 8.35-30.35 6.7-29.15 6.7-26.65L6.7-26.65Q6.7-24.95 7.58-23.83 8.45-22.7 10-21.83 11.55-20.95 14.7-19.5L14.7-19.5Q19.4-17.4 21.55-14.98 23.7-12.55 23.7-8.9L23.7-8.9Q23.7-4.45 20.45-1.88 17.2 0.7 11.6 0.7L11.6 0.7ZM41.3 0.7Q37 0.7 33.62-1.55 30.25-3.8 28.35-7.93 26.45-12.05 26.45-17.5L26.45-17.5Q26.45-22.95 28.35-27.08 30.25-31.2 33.62-33.45 37-35.7 41.3-35.7L41.3-35.7Q45.6-35.7 48.95-33.45 52.3-31.2 54.2-27.08 56.1-22.95 56.1-17.5L56.1-17.5Q56.1-12.05 54.2-7.93 52.3-3.8 48.95-1.55 45.6 0.7 41.3 0.7L41.3 0.7ZM41.3-3.85Q46.1-3.85 48.67-7.68 51.25-11.5 51.25-17.5L51.25-17.5Q51.25-23.5 48.67-27.33 46.1-31.15 41.3-31.15L41.3-31.15Q36.5-31.15 33.9-27.33 31.3-23.5 31.3-17.5L31.3-17.5Q31.3-11.5 33.9-7.68 36.5-3.85 41.3-3.85L41.3-3.85ZM60.89 0L60.89-35 65.44-35 65.44-4.15 78.8-4.15 78.8 0 60.89 0ZM82.79 0L82.79-35 87.39-35 87.39 0 82.79 0ZM94.39 0L94.39-35 105.59-35Q109.94-35 113.31-32.9 116.69-30.8 118.59-26.85 120.49-22.9 120.49-17.5L120.49-17.5Q120.49-12.1 118.59-8.15 116.69-4.2 113.31-2.1 109.94 0 105.59 0L105.59 0 94.39 0ZM98.94-4.15L104.74-4.15Q109.99-4.15 112.72-7.65 115.44-11.15 115.44-17.5L115.44-17.5Q115.44-23.85 112.72-27.35 109.99-30.85 104.74-30.85L104.74-30.85 98.94-30.85 98.94-4.15ZM140.79 0L132.14-35 137.04-35 143.34-6.35 149.94-34.3 155.09-34.3 161.64-6.35 167.99-35 172.84-35 164.24 0 159.09 0 152.44-27.7 145.94 0 140.79 0ZM193.48 0L190.68-9.5 179.83-9.5 177.03 0 172.13 0 182.88-35 187.58-35 198.33 0 193.48 0ZM181.08-13.75L189.43-13.75 185.23-27.95 181.08-13.75ZM210.33 0.7Q207.88 0.7 205.21 0.13 202.53-0.45 200.83-1.25L200.83-1.25 201.48-6.25Q203.48-5 205.93-4.23 208.38-3.45 210.78-3.45L210.78-3.45Q213.88-3.45 215.63-4.73 217.38-6 217.38-8.45L217.38-8.45Q217.38-10.2 216.56-11.45 215.73-12.7 214.18-13.68 212.63-14.65 209.83-15.9L209.83-15.9Q206.53-17.4 204.61-18.65 202.68-19.9 201.53-21.75 200.38-23.6 200.38-26.35L200.38-26.35Q200.38-29.15 201.83-31.28 203.28-33.4 205.91-34.55 208.53-35.7 211.88-35.7L211.88-35.7Q214.43-35.7 216.71-35.15 218.98-34.6 220.58-33.8L220.58-33.8 220.08-29.1Q215.93-31.55 211.63-31.55L211.63-31.55Q208.73-31.55 207.08-30.35 205.43-29.15 205.43-26.65L205.43-26.65Q205.43-24.95 206.31-23.83 207.18-22.7 208.73-21.83 210.28-20.95 213.43-19.5L213.43-19.5Q218.13-17.4 220.28-14.98 222.43-12.55 222.43-8.9L222.43-8.9Q222.43-4.45 219.18-1.88 215.93 0.7 210.33 0.7L210.33 0.7ZM233.28 0L233.28-30.85 224.58-30.85 224.58-35 246.58-35 246.58-30.85 237.88-30.85 237.88 0 233.28 0ZM250.78 0L250.78-35 269.48-35 269.48-30.85 255.33-30.85 255.33-20.4 266.53-20.4 266.53-16.2 255.33-16.2 255.33-4.15 269.88-4.15 269.88 0 250.78 0ZM314.67 0L309.77 0 307.47-25.3 299.02-7.25 290.57-25.3 288.22 0 283.37 0 287.17-35 291.02-35 299.02-16.95 307.02-35 310.87-35 314.67 0ZM338.22 0L335.42-9.5 324.57-9.5 321.77 0 316.87 0 327.62-35 332.32-35 343.07 0 338.22 0ZM325.82-13.75L334.17-13.75 329.97-27.95 325.82-13.75ZM346.77 0L346.77-35 351.92-35 365.77-9.4 365.77-35 370.32-35 370.32 0 366.07 0 351.32-27.05 351.32 0 346.77 0ZM395.36 0L392.56-9.5 381.71-9.5 378.91 0 374.01 0 384.76-35 389.46-35 400.21 0 395.36 0ZM382.96-13.75L391.31-13.75 387.11-27.95 382.96-13.75ZM418.06 0.7Q413.01 0.7 409.31-1.63 405.61-3.95 403.64-8.08 401.66-12.2 401.66-17.5L401.66-17.5Q401.66-22.95 403.76-27.08 405.86-31.2 409.54-33.45 413.21-35.7 417.91-35.7L417.91-35.7Q422.21-35.7 425.71-34.2L425.71-34.2 425.21-29.95Q423.56-30.75 421.94-31.15 420.31-31.55 418.36-31.55L418.36-31.55Q414.66-31.55 412.04-29.7 409.41-27.85 408.06-24.65 406.71-21.45 406.71-17.5L406.71-17.5Q406.71-11.2 409.66-7.33 412.61-3.45 418.31-3.45L418.31-3.45Q420.51-3.45 422.16-4.15L422.16-4.15 422.16-13.4 417.71-13.4 417.71-17.55 426.71-17.55 426.71-1.6Q425.06-0.55 422.76 0.08 420.46 0.7 418.06 0.7L418.06 0.7ZM432.01 0L432.01-35 450.71-35 450.71-30.85 436.56-30.85 436.56-20.4 447.76-20.4 447.76-16.2 436.56-16.2 436.56-4.15 451.11-4.15 451.11 0 432.01 0ZM486.21 0L481.31 0 479.01-25.3 470.56-7.25 462.11-25.3 459.76 0 454.91 0 458.71-35 462.56-35 470.56-16.95 478.56-35 482.41-35 486.21 0ZM491.05 0L491.05-35 509.75-35 509.75-30.85 495.6-30.85 495.6-20.4 506.8-20.4 506.8-16.2 495.6-16.2 495.6-4.15 510.15-4.15 510.15 0 491.05 0ZM514.9 0L514.9-35 520.05-35 533.9-9.4 533.9-35 538.45-35 538.45 0 534.2 0 519.45-27.05 519.45 0 514.9 0ZM551.35 0L551.35-30.85 542.65-30.85 542.65-35 564.65-35 564.65-30.85 555.95-30.85 555.95 0 551.35 0Z" opacity="1" transform="matrix(1,0,0,1,0,0)" fill="#130912" class="slogan-text-1" data-fill-palette-color="secondary" id="text-1"></path></svg></g></svg></g></svg></g></svg></g><g transform="matrix(1,0,0,1,90.96935413370275,0)"><svg viewBox="0 0 213.58129173259448 213.58129173259448" height="213.58129173259448" width="213.58129173259448"><g><svg></svg></g><g id="icon-0"><svg viewBox="0 0 213.58129173259448 213.58129173259448" height="213.58129173259448" width="213.58129173259448"><g><path d="M0 106.791c0-58.979 47.812-106.791 106.791-106.791 58.979 0 106.791 47.812 106.79 106.791 0 58.979-47.812 106.791-106.79 106.79-58.979 0-106.791-47.812-106.791-106.79zM106.791 209.032c56.466 0 102.241-45.775 102.241-102.241 0-56.466-45.775-102.241-102.241-102.242-56.466 0-102.241 45.775-102.242 102.242 0 56.466 45.775 102.241 102.242 102.241z" data-fill-palette-color="tertiary" fill="#130912" stroke="transparent"></path></g><g transform="matrix(1,0,0,1,61.637127695633396,43.13695041269806)"><svg viewBox="0 0 90.30703634132769 127.30739090719835" height="127.30739090719835" width="90.30703634132769"><g><svg xmlns="http://www.w3.org/2000/svg" xmlns:xlink="http://www.w3.org/1999/xlink" version="1.1" x="0" y="0" viewBox="19.47 4.7059999999999995 60.593 85.419" enable-background="new 0 0 100 100" xml:space="preserve" height="127.30739090719835" width="90.30703634132769" class="icon-cg-0" data-fill-palette-color="accent" id="cg-0"><polygon points="68.45,68.714 64.25,90.125 40.125,90.125 34.429,68.714 " fill="#e77917" data-fill-palette-color="accent"></polygon><path d="M45.532 48.833c-0.75-0.333-13.938-3.875-16.5-7s-9.562-4.375-9.562-4.375c12-0.125 17.25 1.562 17.25 1.562 7.938 0.938 10.031 9.938 10.031 9.938l0 0 3.75 3.125-0.042-2.5c0 0-1.042-3.542-1-3.833s-0.125-5.083-0.125-5.083-1.708-4.333-3.958-6.917-4.083-6.168 0.958-16.71c0 0 1.75-2.5 2.083-5.292s4.166-7.042 4.166-7.042S64.416 18.666 51.333 37c0 0-1.177 1.938-1.177 3.719S50.648 48.248 51.25 49l1.594-2.125c0 0 2.031-9 9.969-9.938 0 0 5.25-1.688 17.25-1.562 0 0-7 1.25-9.562 4.375s-15.75 6.667-16.5 7-2.438 3.917-2.438 3.917 0.375 8.751 1 10.167l18.425-0.022-0.737 5.771-1.62 0.035-34.255 0.007h-1.25l-0.583-5.791h19l-0.875-6.667c0 0-0.12-0.965-1.625-2.125l-2.5-2.125L45.532 48.833z" fill="#e77917" data-fill-palette-color="accent"></path></svg></g></svg></g></svg></g></svg></g><g></g></svg></g><defs></defs></svg><rect width="301.49950681821775" height="247.2" fill="none" stroke="none" visibility="hidden"></rect></g></svg></g></svg>